HIERARCHY
ROOT Hips
{
	OFFSET 0.000000 71.427986 0.000000
	CHANNELS 6 Xposition Yposition Zposition Xrotation Yrotation Zrotation
	JOINT Pelvis
	{
		OFFSET 0.000000 0.000000 0.000000
		CHANNELS 3 Xrotation Yrotation Zrotation
		JOINT LeftUpLeg
		{
			OFFSET 6.797100 -2.508499 -1.318700
			CHANNELS 3 Xrotation Yrotation Zrotation
			JOINT LeftLeg
			{
				OFFSET 0.069008 -29.241863 0.690200
				CHANNELS 3 Xrotation Yrotation Zrotation
				JOINT LeftFoot
				{
					OFFSET -0.069008 -29.568123 -0.266800
					CHANNELS 3 Xrotation Yrotation Zrotation
					JOINT LeftToeBase
					{
						OFFSET 3.145500 -8.631000 16.059900
						CHANNELS 3 Xrotation Yrotation Zrotation
						End Site
						{
							OFFSET 0.000000 18.501587 0.000000
						}
					}
				}
			}
			JOINT Left_ShortSleeve
			{
				OFFSET 0.265923 -10.480953 1.153800
				CHANNELS 3 Xrotation Yrotation Zrotation
				End Site
				{
					OFFSET 1.725763 19.823879 0.000000
				}
			}
		}
		JOINT RightUpLeg
		{
			OFFSET -6.797100 -2.508499 -1.318700
			CHANNELS 3 Xrotation Yrotation Zrotation
			JOINT RightLeg
			{
				OFFSET -0.082453 -29.241932 0.688000
				CHANNELS 3 Xrotation Yrotation Zrotation
				JOINT RightFoot
				{
					OFFSET 0.082453 -29.568058 -0.264600
					CHANNELS 3 Xrotation Yrotation Zrotation
					JOINT RightToeBase
					{
						OFFSET -3.115300 -8.682800 16.113400
						CHANNELS 3 Xrotation Yrotation Zrotation
						End Site
						{
							OFFSET 0.000000 18.567114 0.000000
						}
					}
				}
			}
			JOINT Right_ShortSleeve
			{
				OFFSET -0.265923 -10.480953 1.153800
				CHANNELS 3 Xrotation Yrotation Zrotation
				End Site
				{
					OFFSET -1.725766 19.823910 0.000000
				}
			}
		}
	}
	JOINT Spine
	{
		OFFSET 0.000000 13.368103 0.470500
		CHANNELS 3 Xrotation Yrotation Zrotation
		JOINT Spine1
		{
			OFFSET 0.147000 13.837402 0.538800
			CHANNELS 3 Xrotation Yrotation Zrotation
			JOINT Spine2
			{
				OFFSET 0.168000 16.242897 -1.435500
				CHANNELS 3 Xrotation Yrotation Zrotation
				JOINT Neck
				{
					OFFSET 0.217200 18.631500 -1.679100
					CHANNELS 3 Xrotation Yrotation Zrotation
					JOINT Head
					{
						OFFSET 0.000000 6.599396 1.385900
						CHANNELS 3 Xrotation Yrotation Zrotation
						JOINT Hat
						{
							OFFSET -0.532200 27.220596 -10.096100
							CHANNELS 3 Xrotation Yrotation Zrotation
							End Site
							{
								OFFSET 0.000000 22.029861 0.000000
							}
						}
						JOINT HairD
						{
							OFFSET -10.777400 17.437393 -1.325900
							CHANNELS 3 Xrotation Yrotation Zrotation
							JOINT HairD1
							{
								OFFSET -3.290299 -11.051193 1.062200
								CHANNELS 3 Xrotation Yrotation Zrotation
								End Site
								{
									OFFSET 0.000000 11.579437 0.000000
								}
							}
						}
						JOINT HairB
						{
							OFFSET -10.777400 17.437393 1.467900
							CHANNELS 3 Xrotation Yrotation Zrotation
							JOINT HairB1
							{
								OFFSET -1.561200 -12.956299 3.590200
								CHANNELS 3 Xrotation Yrotation Zrotation
								End Site
								{
									OFFSET 0.000000 13.534866 0.000000
								}
							}
						}
						JOINT HairA
						{
							OFFSET 9.713100 17.437393 1.467900
							CHANNELS 3 Xrotation Yrotation Zrotation
							JOINT HairA1
							{
								OFFSET 1.561200 -12.956299 3.590200
								CHANNELS 3 Xrotation Yrotation Zrotation
								End Site
								{
									OFFSET 0.000000 13.534866 0.000000
								}
							}
						}
						JOINT HairC
						{
							OFFSET 9.713100 17.437393 -1.325900
							CHANNELS 3 Xrotation Yrotation Zrotation
							JOINT HairC1
							{
								OFFSET 3.290300 -11.051193 1.062200
								CHANNELS 3 Xrotation Yrotation Zrotation
								End Site
								{
									OFFSET 0.000000 11.579437 0.000000
								}
							}
						}
					}
				}
				JOINT LeftShoulder
				{
					OFFSET 5.101800 15.108002 -2.763700
					CHANNELS 3 Xrotation Yrotation Zrotation
					JOINT LeftArm
					{
						OFFSET 9.825497 2.506317 -1.597400
						CHANNELS 3 Xrotation Yrotation Zrotation
						JOINT LeftForeArm
						{
							OFFSET 21.966244 0.000000 0.000000
							CHANNELS 3 Xrotation Yrotation Zrotation
							JOINT LeftHand
							{
								OFFSET 33.879036 0.000000 0.000000
								CHANNELS 3 Xrotation Yrotation Zrotation
								JOINT LeftHandThumb1
								{
									OFFSET 6.715286 -2.359680 3.363841
									CHANNELS 3 Xrotation Yrotation Zrotation
									JOINT LeftHandThumb2
									{
										OFFSET 2.507072 -1.447464 1.447461
										CHANNELS 3 Xrotation Yrotation Zrotation
										JOINT LeftHandThumb3
										{
											OFFSET 2.898338 -1.673355 1.673357
											CHANNELS 3 Xrotation Yrotation Zrotation
											End Site
											{
												OFFSET -0.295959 3.727692 -0.131651
											}
										}
									}
								}
								JOINT LeftHandIndex1
								{
									OFFSET 14.190811 -0.254547 3.840278
									CHANNELS 3 Xrotation Yrotation Zrotation
									JOINT LeftHandIndex2
									{
										OFFSET 3.551727 0.000000 -0.000000
										CHANNELS 3 Xrotation Yrotation Zrotation
										JOINT LeftHandIndex3
										{
											OFFSET 2.894196 0.000000 0.000000
											CHANNELS 3 Xrotation Yrotation Zrotation
											End Site
											{
												OFFSET -1.000603 2.690872 0.366626
											}
										}
									}
								}
								JOINT LeftHandMiddle1
								{
									OFFSET 13.776489 0.000000 0.000000
									CHANNELS 3 Xrotation Yrotation Zrotation
									JOINT LeftHandMiddle2
									{
										OFFSET 3.438232 0.000000 0.000000
										CHANNELS 3 Xrotation Yrotation Zrotation
										JOINT LeftHandMiddle3
										{
											OFFSET 3.691551 0.000000 0.000000
											CHANNELS 3 Xrotation Yrotation Zrotation
											End Site
											{
												OFFSET -1.082298 3.499527 0.457670
											}
										}
									}
								}
								JOINT LeftHandRing1
								{
									OFFSET 13.966164 -0.268127 -3.067488
									CHANNELS 3 Xrotation Yrotation Zrotation
									JOINT LeftHandRing2
									{
										OFFSET 3.162567 0.000000 0.000000
										CHANNELS 3 Xrotation Yrotation Zrotation
										JOINT LeftHandRing3
										{
											OFFSET 3.324348 0.000000 0.000000
											CHANNELS 3 Xrotation Yrotation Zrotation
											End Site
											{
												OFFSET -0.861900 3.184998 0.405154
											}
										}
									}
								}
								JOINT LeftHandPinky1
								{
									OFFSET 13.131393 -0.168503 -5.746925
									CHANNELS 3 Xrotation Yrotation Zrotation
									JOINT LeftHandPinky2
									{
										OFFSET 2.849182 0.000000 0.000000
										CHANNELS 3 Xrotation Yrotation Zrotation
										JOINT LeftHandPinky3
										{
											OFFSET 2.805038 0.000000 0.000000
											CHANNELS 3 Xrotation Yrotation Zrotation
											End Site
											{
												OFFSET -0.882500 2.642609 0.325652
											}
										}
									}
								}
							}
							JOINT Left_Sleeve
							{
								OFFSET 6.592125 -0.646545 0.805568
								CHANNELS 3 Xrotation Yrotation Zrotation
								End Site
								{
									OFFSET -0.000179 20.275787 -0.000000
								}
							}
						}
					}
				}
				JOINT RightShoulder
				{
					OFFSET -5.731700 15.108002 -2.763700
					CHANNELS 3 Xrotation Yrotation Zrotation
					JOINT RightArm
					{
						OFFSET -9.825497 2.506317 -1.597400
						CHANNELS 3 Xrotation Yrotation Zrotation
						JOINT RightForeArm
						{
							OFFSET -21.966242 0.000000 0.000000
							CHANNELS 3 Xrotation Yrotation Zrotation
							JOINT RightHand
							{
								OFFSET -33.879032 0.000000 0.000000
								CHANNELS 3 Xrotation Yrotation Zrotation
								JOINT RightHandThumb1
								{
									OFFSET -6.715286 -2.359680 3.363841
									CHANNELS 3 Xrotation Yrotation Zrotation
									JOINT RightHandThumb2
									{
										OFFSET -2.507072 -1.447464 1.447461
										CHANNELS 3 Xrotation Yrotation Zrotation
										JOINT RightHandThumb3
										{
											OFFSET -2.898338 -1.673355 1.673357
											CHANNELS 3 Xrotation Yrotation Zrotation
											End Site
											{
												OFFSET 0.295959 3.727692 -0.131651
											}
										}
									}
								}
								JOINT RightHandIndex1
								{
									OFFSET -14.190811 -0.254547 3.840278
									CHANNELS 3 Xrotation Yrotation Zrotation
									JOINT RightHandIndex2
									{
										OFFSET -3.551727 0.000000 -0.000000
										CHANNELS 3 Xrotation Yrotation Zrotation
										JOINT RightHandIndex3
										{
											OFFSET -2.894196 0.000000 0.000000
											CHANNELS 3 Xrotation Yrotation Zrotation
											End Site
											{
												OFFSET 1.000603 2.690872 0.366626
											}
										}
									}
								}
								JOINT RightHandMiddle1
								{
									OFFSET -13.776489 0.000000 0.000000
									CHANNELS 3 Xrotation Yrotation Zrotation
									JOINT RightHandMiddle2
									{
										OFFSET -3.438232 0.000000 0.000000
										CHANNELS 3 Xrotation Yrotation Zrotation
										JOINT RightHandMiddle3
										{
											OFFSET -3.691551 0.000000 0.000000
											CHANNELS 3 Xrotation Yrotation Zrotation
											End Site
											{
												OFFSET 1.082298 3.499527 0.457670
											}
										}
									}
								}
								JOINT RightHandRing1
								{
									OFFSET -13.966164 -0.268127 -3.067488
									CHANNELS 3 Xrotation Yrotation Zrotation
									JOINT RightHandRing2
									{
										OFFSET -3.162567 0.000000 0.000000
										CHANNELS 3 Xrotation Yrotation Zrotation
										JOINT RightHandRing3
										{
											OFFSET -3.324348 0.000000 0.000000
											CHANNELS 3 Xrotation Yrotation Zrotation
											End Site
											{
												OFFSET 0.861900 3.184998 0.405154
											}
										}
									}
								}
								JOINT RightHandPinky1
								{
									OFFSET -13.131393 -0.168503 -5.746925
									CHANNELS 3 Xrotation Yrotation Zrotation
									JOINT RightHandPinky2
									{
										OFFSET -2.849182 0.000000 0.000000
										CHANNELS 3 Xrotation Yrotation Zrotation
										JOINT RightHandPinky3
										{
											OFFSET -2.805038 0.000000 0.000000
											CHANNELS 3 Xrotation Yrotation Zrotation
											End Site
											{
												OFFSET 0.882500 2.642609 0.325652
											}
										}
									}
								}
							}
							JOINT Right_Sleeve
							{
								OFFSET -6.592125 -0.646545 0.805568
								CHANNELS 3 Xrotation Yrotation Zrotation
								End Site
								{
									OFFSET 0.000179 20.275787 -0.000000
								}
							}
						}
					}
				}
				JOINT Bind_Right_JacketString
				{
					OFFSET -3.534800 11.969597 7.200700
					CHANNELS 3 Xrotation Yrotation Zrotation
					JOINT Bind_Right_JacketString1
					{
						OFFSET -0.319900 -6.102600 2.794100
						CHANNELS 3 Xrotation Yrotation Zrotation
						End Site
						{
							OFFSET 0.000000 6.719452 0.000000
						}
					}
				}
				JOINT Bind_Left_JacketString
				{
					OFFSET 2.904800 11.969597 7.200700
					CHANNELS 3 Xrotation Yrotation Zrotation
					JOINT Bind_Left_JacketString1
					{
						OFFSET 0.364800 -5.904503 3.186800
						CHANNELS 3 Xrotation Yrotation Zrotation
						End Site
						{
							OFFSET 0.000000 6.719513 0.000000
						}
					}
				}
				JOINT HairE
				{
					OFFSET 5.915200 17.612701 -11.592200
					CHANNELS 3 Xrotation Yrotation Zrotation
					JOINT HairE1
					{
						OFFSET 0.289200 -7.171898 -1.284500
						CHANNELS 3 Xrotation Yrotation Zrotation
						End Site
						{
							OFFSET 0.000000 7.291756 0.000000
						}
					}
				}
				JOINT HairF
				{
					OFFSET -0.864800 17.612701 -11.592200
					CHANNELS 3 Xrotation Yrotation Zrotation
					JOINT HairF1
					{
						OFFSET 0.000000 -14.087097 -2.127501
						CHANNELS 3 Xrotation Yrotation Zrotation
						End Site
						{
							OFFSET 0.000000 14.246841 0.000000
						}
					}
				}
				JOINT HairG
				{
					OFFSET -8.087700 17.612701 -11.592200
					CHANNELS 3 Xrotation Yrotation Zrotation
					JOINT HairG1
					{
						OFFSET -0.293600 -6.081398 -0.910100
						CHANNELS 3 Xrotation Yrotation Zrotation
						End Site
						{
							OFFSET 0.000000 6.156120 0.000000
						}
					}
				}
			}
		}
	}
	JOINT Pouch
	{
		OFFSET 0.000000 4.394501 10.847300
		CHANNELS 3 Xrotation Yrotation Zrotation
		End Site
		{
			OFFSET 0.000000 21.880577 0.000000
		}
	}
	JOINT Bag
	{
		OFFSET -13.229000 4.813004 -0.593300
		CHANNELS 3 Xrotation Yrotation Zrotation
		End Site
		{
			OFFSET 0.000000 21.880577 0.000000
		}
	}
	JOINT OccupyGuyFacialAnim_Joint
	{
		OFFSET 1.000000 -70.206398 -1.655000
		CHANNELS 3 Xrotation Yrotation Zrotation
		End Site
		{
			OFFSET 0.000000 21.880577 0.000000
		}
	}
}
MOTION
Frames: 4
Frame Time: 0.033333
-64.301483 10.581917 -86.965797 -93.462915 -10.135197 46.458042 -0.000000 0.000000 -0.000001 -4.325816 4.037761 -0.746930 8.796838 7.396254 2.296941 17.441240 9.969806 -28.655314 0.000001 -0.000002 -0.000001 0.000001 0.000001 -0.000000 -38.877105 -22.899273 -46.190906 62.919498 -8.295996 6.377765 8.867682 -3.375765 26.652238 0.000000 -0.000002 -0.000000 0.000000 0.000003 -0.000000 10.553640 -3.497536 3.896303 5.522513 -1.904026 2.296384 5.514274 -1.912969 2.291778 4.883794 -11.788760 10.138018 28.949125 -45.730644 22.879594 0.000000 0.000000 -0.000000 0.000000 0.000000 -0.000000 0.000000 0.000000 0.000000 0.000000 0.000000 -0.000000 0.000000 0.000001 -0.000000 0.000000 0.000000 -0.000000 0.000000 0.000001 -0.000000 0.000000 0.000000 -0.000000 0.000000 0.000000 -0.000000 5.990031 -33.077189 9.816659 -13.525122 -24.948053 -63.580407 -0.000003 -55.664085 0.000012 3.285236 7.177617 -5.480122 -1.540047 3.690193 6.142352 3.939058 7.948705 0.746827 -0.000000 -0.000001 -0.000002 0.125919 1.313452 -10.952166 0.182592 1.578275 -13.197693 0.000001 0.000000 -0.000000 0.125549 1.311563 -10.936182 0.183037 1.580121 -13.213677 -0.000000 0.000001 0.000003 0.125923 1.313446 -10.952169 0.182592 1.578262 -13.197679 0.000001 0.000001 -0.000001 0.881073 5.297083 -10.485303 0.178684 -2.477693 -13.695018 -0.000001 -0.000001 0.000001 -0.000000 0.000000 -0.000001 1.105908 3.175965 -7.236523 -37.752262 3.001008 32.741079 0.000010 33.677491 -0.000013 -50.225735 2.028140 34.081001 -1.849261 -3.581800 -6.586135 4.637211 -8.634111 -0.225408 0.000001 -0.000002 -0.000003 0.400641 -3.306349 40.110187 1.407050 -4.198598 37.040864 -0.000001 -0.000001 -0.000002 1.630559 -4.478631 39.994658 1.407069 -4.198624 37.040854 0.000001 -0.000004 0.000002 1.678680 -4.550103 39.988026 1.407063 -4.198619 37.040864 0.000001 -0.000001 0.000002 3.503899 -6.417497 39.834958 1.407055 -4.198609 37.040854 0.000000 0.000003 0.000003 -0.000001 0.000001 -0.000003 0.000000 -0.000000 0.000001 -0.000001 -0.000000 0.000001 0.000000 -0.000000 -0.000000 0.000000 -0.000000 -0.000000 0.000000 -0.000000 0.000001 -0.000001 -0.000000 0.000001 0.000000 -0.000000 -0.000000 0.000000 -0.000000 -0.000000 0.000000 -0.000000 0.000001 -0.000001 -0.000000 0.000001 -0.000000 0.000000 -0.000001 -0.000000 0.000000 -0.000001 -0.000000 0.000000 -0.000001 
-64.243759 10.453461 -86.850365 -93.786598 -10.771204 46.395224 0.000000 0.000000 0.000000 -4.225919 4.689178 0.557951 9.016352 7.127616 2.015103 18.274460 8.273113 -28.956266 0.000000 -0.000001 0.000001 -0.000000 -0.000000 -0.000001 -42.394796 -23.307279 -48.872360 65.685738 -2.850898 6.122594 8.314669 -4.582117 22.316130 -0.000001 0.000001 0.000000 -0.000000 -0.000003 -0.000002 10.450458 -3.240493 3.838466 5.531701 -1.780517 2.225139 5.522891 -1.802602 2.213630 3.499034 -12.130528 9.258859 28.613662 -47.744119 24.554452 -0.000000 -0.000000 0.000000 -0.000000 -0.000000 0.000000 -0.000000 -0.000000 0.000000 -0.000000 -0.000000 0.000000 -0.000000 -0.000001 0.000000 -0.000000 -0.000000 0.000000 -0.000000 -0.000001 0.000000 -0.000000 -0.000000 0.000000 -0.000000 -0.000000 0.000000 5.574409 -31.243078 9.960384 -13.685142 -23.496681 -67.123384 0.000015 -57.517317 -0.000003 -1.765523 5.155358 -7.589348 -1.540040 3.690200 6.142348 3.939053 7.948697 0.746811 0.000001 -0.000000 -0.000002 0.134808 1.358550 -11.333189 0.177754 1.557474 -13.020962 0.000000 0.000001 -0.000002 0.134426 1.356650 -11.317197 0.178193 1.559355 -13.036962 -0.000001 0.000000 -0.000001 0.134809 1.358533 -11.333186 0.177754 1.557486 -13.020966 0.000000 -0.000000 -0.000002 0.916586 5.337056 -10.868442 0.173669 -2.498384 -13.518661 -0.000000 -0.000001 0.000001 0.000000 -0.000000 0.000001 1.197611 5.454500 -7.421251 -36.670299 0.540746 30.477448 -0.000016 37.595065 0.000016 -44.463019 2.311989 32.912004 -1.849247 -3.581806 -6.586133 4.637201 -8.634122 -0.225427 -0.000001 -0.000001 -0.000002 0.393511 -3.197249 39.409608 1.369869 -4.148982 36.529846 0.000000 -0.000004 0.000005 1.575787 -4.412686 39.287890 1.369881 -4.149018 36.529853 0.000001 0.000001 -0.000002 1.660561 -4.532223 39.276726 1.369864 -4.149011 36.529850 0.000001 -0.000002 -0.000000 3.600336 -6.687904 39.105545 1.369871 -4.149005 36.529850 0.000003 0.000003 -0.000001 0.000002 -0.000004 0.000002 0.000001 -0.000000 -0.000000 -0.000000 0.000000 -0.000004 0.000001 -0.000000 -0.000002 0.000001 -0.000000 -0.000002 0.000001 -0.000000 -0.000000 -0.000000 0.000000 -0.000003 0.000001 -0.000000 -0.000002 0.000001 -0.000000 -0.000002 0.000001 -0.000000 -0.000000 -0.000000 0.000000 -0.000003 0.000000 0.000000 0.000000 0.000000 0.000000 0.000000 0.000000 0.000000 0.000000 
-64.214828 10.313614 -86.458351 -92.796979 -11.289895 46.106608 -0.000001 0.000000 -0.000001 -5.755928 4.933402 1.314453 10.391545 5.370827 2.137716 22.148038 5.321727 -24.625267 0.000000 0.000002 -0.000000 0.000001 0.000000 -0.000004 -45.656420 -23.946730 -49.125620 67.520422 0.529883 6.259181 8.119488 -4.243530 15.091436 -0.000001 0.000002 0.000000 0.000000 -0.000001 -0.000002 10.020191 -2.898064 3.987786 5.359650 -1.606192 2.253526 5.350391 -1.637630 2.239482 2.240511 -12.333001 8.944527 28.330467 -48.184854 24.878766 -0.000000 -0.000001 -0.000001 -0.000000 -0.000001 -0.000001 -0.000000 -0.000001 -0.000000 -0.000000 -0.000001 0.000000 -0.000000 0.000000 0.000000 -0.000000 -0.000001 0.000000 -0.000000 0.000000 0.000000 -0.000000 -0.000001 -0.000001 -0.000000 -0.000001 -0.000001 4.908667 -27.562078 10.069469 -14.051578 -24.111604 -72.271140 0.000005 -59.622818 0.000001 2.279790 3.422417 -9.144863 -1.540046 3.690198 6.142358 3.939055 7.948704 0.746803 0.000000 0.000001 -0.000004 0.144885 1.407860 -11.750575 0.176018 1.549985 -12.956819 0.000000 -0.000000 -0.000004 0.144488 1.405971 -11.734577 0.176455 1.551843 -12.972816 0.000001 0.000000 -0.000001 0.144886 1.407854 -11.750564 0.176018 1.549986 -12.956816 0.000001 -0.000000 -0.000002 0.955785 5.380564 -11.288191 0.171860 -2.505895 -13.454630 -0.000001 -0.000001 0.000001 0.000000 0.000000 0.000001 1.335822 6.395048 -7.216675 -36.949124 -1.260029 28.870141 0.000003 42.455220 -0.000003 -38.445024 0.967580 25.117201 -1.849254 -3.581788 -6.586138 4.637197 -8.634133 -0.225398 0.000000 -0.000005 -0.000002 0.295772 -2.655456 35.411153 1.226818 -3.949062 34.504056 -0.000005 0.000004 -0.000003 1.279736 -4.024804 35.265254 1.226810 -3.949067 34.504046 -0.000001 -0.000005 0.000004 1.401445 -4.198741 35.248144 1.237582 -3.964669 34.660167 -0.000001 -0.000004 0.000004 3.260183 -6.817536 35.033263 1.237587 -3.964661 34.660177 0.000001 0.000000 0.000002 0.000000 -0.000002 0.000001 0.000001 -0.000001 -0.000001 0.000001 -0.000001 -0.000005 0.000001 -0.000001 -0.000003 0.000001 -0.000001 -0.000003 0.000001 -0.000001 -0.000001 0.000001 -0.000001 -0.000004 0.000001 -0.000001 -0.000003 0.000001 -0.000001 -0.000003 0.000001 -0.000001 -0.000001 0.000001 -0.000001 -0.000004 -0.000001 0.000000 -0.000001 -0.000001 0.000000 -0.000001 -0.000001 0.000000 -0.000001 
-64.312302 10.200172 -86.054428 -91.042747 -11.821921 45.831427 0.000001 0.000000 -0.000000 -6.352563 5.113387 2.020933 11.274449 4.208678 2.267879 23.674493 2.814845 -20.945964 0.000002 0.000001 -0.000002 0.000002 0.000000 -0.000003 -47.663119 -24.984492 -49.169640 68.919655 -0.976732 6.312740 10.184755 -5.218726 12.292700 0.000000 -0.000001 -0.000000 0.000001 -0.000000 -0.000000 9.568263 -2.682429 4.162230 5.149613 -1.487007 2.414076 5.145198 -1.516278 2.401591 1.393468 -12.481400 9.257642 28.613915 -47.579374 24.367950 -0.000000 -0.000001 0.000000 -0.000000 -0.000001 0.000000 -0.000000 -0.000001 0.000000 -0.000000 -0.000001 0.000001 0.000000 -0.000001 -0.000000 -0.000000 -0.000001 0.000001 0.000000 -0.000001 -0.000000 -0.000000 -0.000001 0.000000 -0.000000 -0.000001 0.000000 4.832072 -24.878204 12.200454 -13.612640 -25.017308 -78.533283 0.000002 -61.401529 0.000005 6.099518 0.124948 -8.483737 -1.540041 3.690182 6.142360 3.939051 7.948704 0.746801 0.000001 -0.000001 -0.000003 0.164215 1.497766 -12.512993 0.172373 1.534077 -12.821807 -0.000001 0.000001 -0.000002 0.163793 1.495890 -12.497012 0.172812 1.535944 -12.837796 0.000001 -0.000000 0.000001 0.164216 1.497763 -12.512989 0.172383 1.534064 -12.821797 -0.000001 0.000000 -0.000002 1.028215 5.459305 -12.055022 0.168085 -2.521737 -13.319878 0.000002 0.000000 0.000001 0.000000 -0.000000 0.000001 1.700144 7.347775 -6.543653 -36.879941 -2.582565 27.242204 0.000015 45.073262 -0.000017 -32.825435 -1.578110 20.669303 -1.849257 -3.581796 -6.586136 4.637200 -8.634124 -0.225405 0.000001 0.000004 -0.000001 0.221108 -2.207036 31.952923 1.111552 -3.776313 32.793453 -0.000001 0.000000 0.000004 1.046403 -3.673424 31.790344 1.111564 -3.776326 32.793432 0.000001 -0.000001 0.000001 1.203351 -3.904583 31.766742 1.154147 -3.841475 33.434490 0.000000 0.000001 -0.000001 3.023649 -6.925891 31.509855 1.154155 -3.841469 33.434476 -0.000001 -0.000001 -0.000003 0.000000 -0.000001 -0.000001 -0.000001 -0.000000 0.000001 -0.000001 -0.000000 -0.000001 -0.000001 -0.000000 -0.000001 -0.000001 -0.000000 -0.000001 -0.000001 -0.000000 0.000001 -0.000001 -0.000000 -0.000001 -0.000001 -0.000000 -0.000001 -0.000001 -0.000000 -0.000001 -0.000001 -0.000000 0.000001 -0.000001 -0.000000 -0.000001 0.000001 0.000000 -0.000000 0.000001 0.000000 -0.000000 0.000001 0.000000 -0.000000 
